#N canvas 1530 284 565 397 12;
#X obj 75 171 tones;
#X obj 157 172 audioplayer;
#X text 71 32 main pd entrypoint!;
#X obj 101 118 netreceive -u -b;
#X msg 101 90 listen 6066;
#X obj 100 65 loadbang;
#X connect 3 0 0 0;
#X connect 3 0 1 0;
#X connect 4 0 3 0;
#X connect 5 0 4 0;
