#N canvas 204 208 943 1163 12;
#X obj 267 469 readsf~;
#X obj 266 514 dac~;
#X msg 228 433 1;
#X msg 331 433 0;
#X obj 280 400 print;
#X msg 267 373 open \$1;
#X obj 219 72 netreceive -u -b;
#X msg 219 44 listen 6066;
#X obj 218 19 loadbang;
#X obj 220 100 oscparse;
#X obj 18 46 oscformat play;
#X obj 318 500 bng 15 250 50 0 empty empty empty 17 7 0 10 -262144
-1 -1;
#X msg 18 17 symbol margarets_monologue;
#X obj 215 188 route list;
#X obj 216 310 makefilename %s.wav;
#X obj 307 287 print inter;
#X obj 215 286 symbol;
#X obj 236 341 t b s;
#X obj 215 213 route play off;
#X msg 15 120 symbol 1;
#X obj 17 143 oscformat off;
#X connect 0 0 1 0;
#X connect 0 0 1 1;
#X connect 0 1 11 0;
#X connect 2 0 0 0;
#X connect 3 0 0 0;
#X connect 5 0 0 0;
#X connect 5 0 4 0;
#X connect 6 0 9 0;
#X connect 7 0 6 0;
#X connect 8 0 7 0;
#X connect 9 0 13 0;
#X connect 10 0 9 0;
#X connect 12 0 10 0;
#X connect 13 0 18 0;
#X connect 14 0 17 0;
#X connect 16 0 14 0;
#X connect 17 0 2 0;
#X connect 17 1 5 0;
#X connect 18 0 15 0;
#X connect 18 0 16 0;
#X connect 18 1 3 0;
#X connect 19 0 20 0;
#X connect 20 0 9 0;
