#N canvas 607 148 1331 837 12;
#X obj 338 351 dac~;
#N canvas 445 732 1304 1075 tones 1;
#X obj 31 9 inlet;
#X obj 96 383 dtmf~;
#X obj 158 477 outlet~;
#X msg 95 342 off;
#X obj 168 218 bng 15 250 50 0 empty empty empty 17 7 0 10 -262144
-1 -1;
#X obj 234 219 bng 15 250 50 0 empty empty empty 17 7 0 10 -262144
-1 -1;
#X obj 31 45 route list;
#X obj 45 464 print log;
#X msg 139 302 on *;
#X msg 155 335 on #;
#X msg 45 342 on \$1;
#X obj 13 207 route star asterisk;
#X obj 20 249 route pound hash;
#N canvas 2383 402 1296 1132 ring 0;
#X obj 68 42 inlet;
#X obj 148 41 inlet;
#X text 63 18 bang;
#X text 144 15 stop;
#X obj 111 381 *~ 0.5;
#X obj 90 410 *~;
#X obj 90 289 vline~;
#X msg 91 251 1 33;
#X msg 135 251 0 33;
#X msg 154 80 stop;
#X msg 99 82 bang;
#X obj 86 466 outlet~;
#X obj 127 348 osc~ 480;
#X obj 89 123 metro 6000;
#X obj 111 322 osc~ 440;
#X obj 135 177 delay 2000;
#X connect 0 0 10 0;
#X connect 1 0 9 0;
#X connect 4 0 5 1;
#X connect 5 0 11 0;
#X connect 6 0 5 0;
#X connect 7 0 6 0;
#X connect 8 0 6 0;
#X connect 9 0 13 0;
#X connect 9 0 8 0;
#X connect 10 0 13 0;
#X connect 12 0 4 0;
#X connect 13 0 7 0;
#X connect 13 0 15 0;
#X connect 14 0 4 0;
#X connect 15 0 8 0;
#X restore 491 315 pd ring;
#N canvas 2383 402 1296 1132 busy 0;
#X obj 68 42 inlet;
#X obj 148 41 inlet;
#X text 63 18 bang;
#X text 144 15 stop;
#X obj 111 381 *~ 0.5;
#X obj 90 410 *~;
#X obj 90 289 vline~;
#X msg 91 251 1 33;
#X msg 135 251 0 33;
#X obj 111 322 osc~ 480;
#X obj 127 348 osc~ 620;
#X obj 88 175 % 2;
#X obj 92 201 select 0 1;
#X msg 154 80 stop;
#X obj 91 226 bng 15 250 50 0 empty empty empty 17 7 0 10 -262144 -1
-1;
#X obj 135 229 bng 15 250 50 0 empty empty empty 17 7 0 10 -262144
-1 -1;
#X msg 99 82 bang;
#X obj 89 123 metro 500;
#X obj 89 150 f;
#X obj 121 150 + 1;
#X obj 86 466 outlet~;
#X connect 0 0 16 0;
#X connect 1 0 13 0;
#X connect 4 0 5 1;
#X connect 5 0 20 0;
#X connect 6 0 5 0;
#X connect 7 0 6 0;
#X connect 8 0 6 0;
#X connect 9 0 4 0;
#X connect 10 0 4 0;
#X connect 11 0 12 0;
#X connect 12 0 14 0;
#X connect 12 1 15 0;
#X connect 13 0 17 0;
#X connect 13 0 15 0;
#X connect 14 0 7 0;
#X connect 15 0 8 0;
#X connect 16 0 17 0;
#X connect 17 0 18 0;
#X connect 18 0 19 0;
#X connect 18 0 11 0;
#X connect 19 0 18 1;
#X restore 329 313 pd busy;
#N canvas 2607 989 806 850 dialtone 0;
#X obj 97 289 outlet~;
#X obj 97 38 inlet;
#X obj 148 40 inlet;
#X obj 120 220 *~ 0.5;
#X obj 120 161 osc~ 440;
#X obj 141 188 osc~ 350;
#X obj 99 249 *~;
#X obj 99 128 vline~;
#X msg 100 90 1 33;
#X msg 145 89 0 33;
#X connect 1 0 8 0;
#X connect 2 0 9 0;
#X connect 3 0 6 1;
#X connect 4 0 3 0;
#X connect 5 0 3 0;
#X connect 6 0 0 0;
#X connect 7 0 6 0;
#X connect 8 0 7 0;
#X connect 9 0 7 0;
#X restore 228 314 pd dialtone;
#X obj 270 218 bng 15 250 50 0 empty empty empty 17 7 0 10 -262144
-1 -1;
#X obj 385 217 bng 15 250 50 0 empty empty empty 17 7 0 10 -262144
-1 -1;
#X obj 54 126 route off;
#X obj 70 151 bng 15 250 50 0 empty empty empty 17 7 0 10 -262144 -1
-1;
#N canvas 1690 664 1296 1132 fastbusy 0;
#X obj 68 42 inlet;
#X obj 148 41 inlet;
#X text 63 18 bang;
#X text 144 15 stop;
#X obj 111 381 *~ 0.5;
#X obj 90 410 *~;
#X obj 90 289 vline~;
#X obj 111 322 osc~ 480;
#X obj 127 348 osc~ 620;
#X obj 88 175 % 2;
#X obj 92 201 select 0 1;
#X msg 154 80 stop;
#X obj 91 226 bng 15 250 50 0 empty empty empty 17 7 0 10 -262144 -1
-1;
#X obj 135 229 bng 15 250 50 0 empty empty empty 17 7 0 10 -262144
-1 -1;
#X msg 99 82 bang;
#X obj 89 150 f;
#X obj 121 150 + 1;
#X obj 86 466 outlet~;
#X obj 89 123 metro 250;
#X msg 91 251 1 5;
#X msg 135 251 0 5;
#X connect 0 0 14 0;
#X connect 1 0 11 0;
#X connect 4 0 5 1;
#X connect 5 0 17 0;
#X connect 6 0 5 0;
#X connect 7 0 4 0;
#X connect 8 0 4 0;
#X connect 9 0 10 0;
#X connect 10 0 12 0;
#X connect 10 1 13 0;
#X connect 11 0 13 0;
#X connect 11 0 18 0;
#X connect 12 0 19 0;
#X connect 13 0 20 0;
#X connect 14 0 18 0;
#X connect 15 0 16 0;
#X connect 15 0 9 0;
#X connect 16 0 15 1;
#X connect 18 0 15 0;
#X connect 19 0 6 0;
#X connect 20 0 6 0;
#X restore 398 314 pd fastbusy;
#X obj 169 180 select off dialtone busy fastbusy ring;
#X obj 321 215 bng 15 250 50 0 empty empty empty 17 7 0 10 -262144
-1 -1;
#X obj 31 75 route key keys off dialtone busy fastbusy ring;
#X connect 0 0 6 0;
#X connect 1 0 2 0;
#X connect 3 0 1 0;
#X connect 4 0 3 0;
#X connect 4 0 14 1;
#X connect 4 0 15 1;
#X connect 4 0 13 1;
#X connect 4 0 20 1;
#X connect 5 0 14 1;
#X connect 5 0 15 0;
#X connect 5 0 3 0;
#X connect 5 0 13 1;
#X connect 5 0 20 1;
#X connect 6 0 23 0;
#X connect 6 1 21 0;
#X connect 8 0 1 0;
#X connect 9 0 1 0;
#X connect 10 0 1 0;
#X connect 10 0 7 0;
#X connect 11 0 8 0;
#X connect 11 1 8 0;
#X connect 11 2 12 0;
#X connect 12 0 9 0;
#X connect 12 1 9 0;
#X connect 12 2 10 0;
#X connect 13 0 2 0;
#X connect 14 0 2 0;
#X connect 15 0 2 0;
#X connect 16 0 14 0;
#X connect 16 0 15 1;
#X connect 16 0 3 0;
#X connect 16 0 13 1;
#X connect 16 0 20 1;
#X connect 17 0 13 0;
#X connect 17 0 15 1;
#X connect 17 0 14 1;
#X connect 17 0 3 0;
#X connect 17 0 20 1;
#X connect 18 0 19 0;
#X connect 19 0 3 0;
#X connect 20 0 2 0;
#X connect 21 0 4 0;
#X connect 21 1 5 0;
#X connect 21 2 16 0;
#X connect 21 3 22 0;
#X connect 21 4 17 0;
#X connect 22 0 20 0;
#X connect 22 0 3 0;
#X connect 22 0 15 1;
#X connect 22 0 14 1;
#X connect 22 0 13 1;
#X connect 23 0 11 0;
#X connect 23 1 18 0;
#X connect 23 2 4 0;
#X connect 23 3 5 0;
#X connect 23 4 16 0;
#X connect 23 5 22 0;
#X connect 23 6 17 0;
#X restore 342 285 pd tones;
#X obj 340 216 oscparse;
#X obj 345 61 oscformat dialtone;
#X obj 268 154 oscformat off;
#X obj 267 134 bng 15 250 50 0 empty empty empty 17 7 0 10 -262144
-1 -1;
#X floatatom 89 109 5 0 0 0 - - -;
#X msg 116 79 1;
#X obj 338 40 bng 15 250 50 0 empty empty empty 17 7 0 10 -262144 -1
-1;
#X text 14 22 /dialtone;
#X obj 153 158 oscformat key;
#X text 15 42 /key/1;
#X msg 197 90 6;
#X text 13 63 /key/star;
#X text 14 83 /key/pound;
#X msg 151 79 2;
#X msg 173 42 symbol pound;
#X msg 111 15 symbol star;
#X text 15 108 /off;
#X obj 24 203 loadbang;
#X msg 25 275 \; pd dsp 1;
#X obj 26 242 delay 2500;
#X obj 361 251 print saw osc:;
#X obj 319 67 bng 15 250 50 0 empty empty empty 17 7 0 10 -262144 -1
-1;
#X obj 333 92 oscformat busy;
#X obj 362 11 bng 15 250 50 0 empty empty empty 17 7 0 10 -262144 -1
-1;
#X obj 369 32 oscformat ring;
#X obj 520 123 inlet;
#X text 515 100 netreceive input here;
#X msg 176 194 symbol off;
#X obj 177 222 oscformat keys;
#X obj 289 95 bng 15 250 50 0 empty empty empty 17 7 0 10 -262144 -1
-1;
#X obj 303 120 oscformat fastbusy;
#X connect 1 0 0 1;
#X connect 1 0 0 0;
#X connect 2 0 1 0;
#X connect 2 0 22 0;
#X connect 3 0 2 0;
#X connect 4 0 2 0;
#X connect 5 0 4 0;
#X connect 6 0 10 0;
#X connect 7 0 10 0;
#X connect 8 0 3 0;
#X connect 10 0 2 0;
#X connect 12 0 10 0;
#X connect 15 0 10 0;
#X connect 16 0 10 0;
#X connect 17 0 10 0;
#X connect 21 0 20 0;
#X connect 23 0 24 0;
#X connect 24 0 2 0;
#X connect 25 0 26 0;
#X connect 26 0 2 0;
#X connect 27 0 2 0;
#X connect 29 0 30 0;
#X connect 30 0 2 0;
#X connect 31 0 32 0;
#X connect 32 0 2 0;
